<?xml version="1.0" encoding="UTF-8"?>
<svg id="Layer_2" data-name="Layer 2" xmlns="http://www.w3.org/2000/svg" viewBox="0 0 64.17 68.46">
  <defs>
    <style>
      .cls-1 {
        fill: #fffdd2;
        stroke-width: 0px;
      }
    </style>
  </defs>
  <g id="Layer_1-2" data-name="Layer 1">
    <path class="cls-1" d="M64.17,21.39v8.56h-4.27v-4.28h-17.11v-4.27h21.39ZM51.34,64.17v4.28h12.83v-8.56h-4.27v4.27h-8.56ZM55.62,59.9h4.28v-8.56h-4.28v8.56ZM55.62,34.24h4.28v-4.3h-4.28v4.3ZM51.34,51.34h4.27v-8.55h-4.27v8.55ZM51.34,38.51h4.27v-4.27h-4.27v4.27ZM42.79,59.9v4.27h8.56v-4.27h-8.56ZM47.07,42.8h4.27v-4.28h-4.27v4.28ZM34.22,55.63v4.27h8.57v-4.27h-8.57ZM38.51,21.39h4.27v-8.56h-4.27s0,8.56,0,8.56ZM34.22,38.51h4.3v-12.85h-4.3v12.85ZM34.22,12.83h4.3V4.28h-4.3v8.55ZM29.93,51.34v4.28h4.28v-4.28h-4.28ZM34.22,0h-4.28v4.28h4.28V0ZM25.66,38.51h4.27v-12.85h-4.27v12.85ZM29.93,4.28h-4.27v8.55h4.27V4.28ZM21.39,55.63v4.27h8.55v-4.27h-8.55ZM25.66,12.83h-4.27v8.56h4.27v-8.56ZM12.83,59.9v4.27h8.56v-4.27h-8.56ZM17.1,38.51h-4.27v4.28h4.27v-4.28ZM12.83,42.8h-4.27v8.55h4.27v-8.55ZM8.56,34.24v4.27h4.27v-4.27h-4.27ZM4.27,64.17v-4.27H0v8.56h12.83v-4.28H4.27ZM8.56,51.34h-4.28v8.56h4.28v-8.56ZM4.27,29.94v4.3h4.28v-4.3h-4.28ZM21.39,25.66v-4.27H0v8.56h4.27v-4.28h17.11Z"/>
  </g>
</svg>